<svg xmlns="http://www.w3.org/2000/svg" xmlns:xlink="http://www.w3.org/1999/xlink" width="57" zoomAndPan="magnify" viewBox="0 0 42.75 36.750001" height="49" preserveAspectRatio="xMidYMid meet" version="1.0"><defs><clipPath id="c0b087a8fc"><path d="M 0.445312 0.53125 L 12 0.53125 L 12 36.289062 L 0.445312 36.289062 Z M 0.445312 0.53125 " clip-rule="nonzero"/></clipPath><clipPath id="c00d35e459"><path d="M 30 0.53125 L 42 0.53125 L 42 36.289062 L 30 36.289062 Z M 30 0.53125 " clip-rule="nonzero"/></clipPath></defs><path fill="#002cc4" d="M 17.394531 32.761719 C 16.71875 32.121094 16.816406 31.023438 17.644531 29.941406 C 18.261719 29.144531 20.824219 26.527344 22.675781 24.808594 L 23.421875 24.113281 L 22.230469 21.542969 C 20.898438 18.660156 20.902344 18.605469 22.664062 18.410156 L 23.636719 18.300781 L 24.71875 19.949219 C 25.3125 20.859375 25.890625 21.597656 25.992188 21.597656 C 26.09375 21.597656 27.164062 20.734375 28.367188 19.683594 C 30.453125 17.847656 30.585938 17.769531 31.292969 17.863281 C 31.71875 17.925781 32.097656 17.886719 32.1875 17.78125 C 32.394531 17.527344 32.996094 17.902344 32.996094 18.285156 C 32.996094 18.445312 32.695312 18.84375 32.332031 19.175781 C 30.832031 20.527344 27.636719 23.734375 27.636719 23.882812 C 27.636719 23.96875 28.28125 25.085938 29.070312 26.371094 L 30.402344 28.539062 C 30.460938 28.632812 30.449219 28.757812 30.375 28.839844 L 30.058594 29.085938 C 29.816406 29.351562 29.65625 29.5625 29.625 29.824219 C 29.679688 29.984375 29.441406 30.0625 29.222656 30.164062 C 28.675781 30.421875 28.269531 30.105469 26.589844 28.121094 C 25.820312 27.210938 25.117188 26.464844 25.023438 26.464844 C 24.8125 26.460938 22.515625 28.988281 20.738281 31.175781 C 19.171875 33.105469 17.792969 33.144531 17.394531 32.765625 Z M 17.394531 32.761719 " fill-opacity="1" fill-rule="nonzero"/><path fill="#002cc4" d="M 15.53125 17.757812 C 15.523438 17.742188 15.511719 17.730469 15.503906 17.71875 C 12.003906 12.457031 9.46875 11.53125 9.558594 11.476562 C 10.886719 10.613281 13.382812 11.460938 14.925781 12.839844 C 14.945312 12.855469 14.964844 12.875 14.984375 12.894531 C 15.351562 13.210938 15.4375 13.328125 15.878906 13.824219 C 15.960938 13.824219 17.667969 10.96875 17.679688 10.949219 C 21.113281 5.496094 24.707031 3.191406 26.792969 3.195312 C 27.785156 3.195312 27.933594 3.542969 27.933594 3.542969 C 24.554688 5.320312 21.699219 8.484375 18.746094 14.3125 C 17.921875 15.980469 16.535156 18.675781 16.433594 18.859375 C 16.285156 19.136719 16.257812 18.722656 15.535156 17.757812 Z M 15.53125 17.757812 " fill-opacity="1" fill-rule="nonzero"/><g clip-path="url(#c0b087a8fc)"><path fill="#002cc4" d="M 4.09375 18.039062 C 5.03125 17.808594 5.75 17.480469 6.257812 17.050781 C 6.765625 16.625 7.109375 16.113281 7.300781 15.523438 C 7.488281 14.929688 7.582031 14.269531 7.582031 13.546875 L 7.582031 7.984375 C 7.582031 6.902344 7.710938 6.007812 7.964844 5.308594 C 8.21875 4.605469 8.652344 4.089844 9.261719 3.757812 C 9.875 3.421875 10.714844 3.257812 11.78125 3.257812 L 11.78125 0.53125 C 10.429688 0.53125 9.292969 0.679688 8.371094 0.976562 C 7.449219 1.273438 6.714844 1.730469 6.160156 2.339844 C 5.605469 2.949219 5.207031 3.722656 4.964844 4.660156 C 4.71875 5.597656 4.597656 6.707031 4.597656 7.984375 L 4.597656 12.4375 C 4.597656 13.957031 4.292969 15.039062 3.679688 15.691406 C 3.066406 16.339844 1.992188 16.664062 0.453125 16.664062 L 0.453125 20 C 1.992188 20 3.066406 20.324219 3.679688 20.972656 C 4.289062 21.625 4.597656 22.707031 4.597656 24.230469 L 4.597656 28.675781 C 4.597656 29.957031 4.71875 31.0625 4.964844 32 C 5.207031 32.9375 5.605469 33.710938 6.160156 34.324219 C 6.714844 34.933594 7.449219 35.386719 8.371094 35.683594 C 9.292969 35.980469 10.429688 36.128906 11.78125 36.128906 L 11.78125 33.402344 C 10.714844 33.402344 9.875 33.234375 9.261719 32.894531 C 8.652344 32.558594 8.21875 32.042969 7.964844 31.347656 C 7.710938 30.648438 7.582031 29.761719 7.582031 28.675781 L 7.582031 23.113281 C 7.582031 22.390625 7.488281 21.734375 7.300781 21.136719 C 7.109375 20.546875 6.765625 20.035156 6.257812 19.609375 C 5.75 19.179688 5.03125 18.851562 4.09375 18.621094 C 3.976562 18.589844 3.839844 18.570312 3.714844 18.542969 L 3.714844 18.117188 C 3.839844 18.089844 3.976562 18.066406 4.09375 18.039062 Z M 4.09375 18.039062 " fill-opacity="1" fill-rule="nonzero"/></g><g clip-path="url(#c00d35e459)"><path fill="#002cc4" d="M 38.125 18.039062 C 37.1875 17.808594 36.46875 17.480469 35.960938 17.050781 C 35.453125 16.625 35.109375 16.113281 34.917969 15.523438 C 34.730469 14.929688 34.636719 14.269531 34.636719 13.546875 L 34.636719 7.984375 C 34.636719 6.902344 34.507812 6.007812 34.253906 5.308594 C 34 4.605469 33.566406 4.089844 32.957031 3.757812 C 32.34375 3.421875 31.503906 3.257812 30.4375 3.257812 L 30.4375 0.53125 C 31.789062 0.53125 32.925781 0.679688 33.847656 0.976562 C 34.769531 1.273438 35.503906 1.730469 36.058594 2.339844 C 36.613281 2.949219 37.011719 3.722656 37.253906 4.660156 C 37.5 5.597656 37.621094 6.707031 37.621094 7.984375 L 37.621094 12.4375 C 37.621094 13.957031 37.925781 15.039062 38.539062 15.691406 C 39.152344 16.339844 40.226562 16.664062 41.765625 16.664062 L 41.765625 20 C 40.226562 20 39.152344 20.324219 38.539062 20.972656 C 37.925781 21.621094 37.621094 22.707031 37.621094 24.226562 L 37.621094 28.675781 C 37.621094 29.953125 37.5 31.0625 37.253906 32 C 37.011719 32.933594 36.613281 33.710938 36.058594 34.320312 C 35.507812 34.929688 34.769531 35.386719 33.847656 35.683594 C 32.925781 35.976562 31.789062 36.128906 30.4375 36.128906 L 30.4375 33.402344 C 31.503906 33.402344 32.34375 33.230469 32.957031 32.894531 C 33.566406 32.554688 34 32.039062 34.253906 31.34375 C 34.507812 30.648438 34.636719 29.757812 34.636719 28.671875 L 34.636719 23.109375 C 34.636719 22.386719 34.730469 21.730469 34.917969 21.136719 C 35.109375 20.542969 35.453125 20.03125 35.960938 19.605469 C 36.46875 19.179688 37.1875 18.851562 38.125 18.617188 C 38.242188 18.589844 38.378906 18.566406 38.503906 18.542969 L 38.503906 18.113281 C 38.378906 18.085938 38.242188 18.066406 38.125 18.039062 Z M 38.125 18.039062 " fill-opacity="1" fill-rule="nonzero"/></g></svg>